<svg xmlns="http://www.w3.org/2000/svg" width="595.28" height="595.28" viewBox="0 0 595.28 595.28"><path fill="#184B6F" d="M536.016 435.268L297.64 572.894 59.265 435.268V160.015L297.64 22.387l238.376 137.628"/><path fill="#BBE0E1" d="M432.81 286.03c0-72.13-58.467-130.6-130.597-130.6-72.128 0-130.597 58.47-130.597 130.6 0 72.125 58.47 130.594 130.597 130.594 72.13 0 130.598-58.47 130.598-130.595z"/><path fill="#9BD3D3" d="M253.34 164.92c-47.904 19.353-81.724 66.268-81.724 121.11 0 72.125 58.47 130.594 130.597 130.594 24.603 0 47.605-6.81 67.25-18.636 15.187-23.622 24.035-51.71 24.035-81.88 0-79.89-61.776-145.3-140.16-151.19z"/><g fill="#68ADA7"><path d="M381.694 337.82c-1.42-.47-3.777-1.415-4.72-3.087-.947-1.672-11.802-2.577-11.802-2.577s4.248-6.134 3.777-9.44c-.475-3.307-7.557-3.777-7.557-3.777s-4.718-.473-7.077-.943c-2.367-.473-5.196-3.78-5.196-3.78l-12.743-6.134h-11.333l-4.248 4.22s-4.247-2.806-4.052 8.998c.2 11.802 0 3.69 0 3.69h-3.503s-3.3 2.448-5.192 4.874c-1.885 2.422-3.773 8.905-3.304 11.265.47 2.355 2.358-.474 4.722 0 2.355.47 0 2.36 0 2.36s1.886 4.247 2.36 5.666c.473 1.417 2.832 5.66 3.773 7.077.947 1.417 5.67 4.248 7.084 4.248 1.418 0 6.137 5.197 6.137 5.197s-4.247 10.385-5.407 11.802c-1.148 1.415 0 7.55 0 7.55l3.05 6.345-6.087 5.932v5.19s1.364 5.666.42 7.555c-.945 1.89 0 4.72 0 4.72v.517c3.997-.57 7.932-1.332 11.803-2.255l.94-3.454 1.888-3.305 8.975-3.304s8.966-.943 11.325-2.36c2.36-1.416 5.196-6.135 5.196-6.135s1.89-8.497 4.248-10.86c2.36-2.36 3.304-1.887 5.188-3.306 1.89-1.414 9.914-5.19 10.863-8.965.94-3.778 1.414-8.5 2.358-11.33.95-2.837 5.197-3.307 5.197-3.307s4.72-7.083 4.72-8.5c0-1.415-2.364-2.83-4.25-6.135-1.887-3.305-6.134-3.78-7.553-4.252zM403.28 203.32c-15.73-19.195-36.822-33.81-60.98-41.598h-6.87v5.207h-4.72s.94 3.302 0 4.717c-.943 1.416 3.778 2.365 3.778 2.365H349.082c.514 0 4.757 6.137 6.176 6.604 1.42.473 6.137 2.675 7.556 3.228 1.415.55 2.36 2.91 2.36 4.328 0 1.414-.945 3.775-.945 3.775s-6.19-3.306-4.98 0c1.2 3.306 5.453 10.857 6.868 13.216 1.415 2.363 3.773 3.78 5.662 5.197 1.89 1.414 4.727 3.773 6.138 3.773h6.136s-3.303-3.3 0-5.19c3.308-1.89 5.667-5.194 5.667-5.194h6.138c1.163 0 5.798-.315 7.42-.43zM305.57 289.61l3.008-2.26h2.656s1.595 1.24 2.657 1.132c1.066-.112 3.01.775 4.068 1.128 1.066.354 1.066-.886 1.95 0 .887.886 3.01 2.124 3.01 2.124s.707.18 0 1.062c-.704.885-2.123 1.062-3.01 1.24-.884.176.355.176-.884.176s-1.592-.884-1.592-1.416c0-.53.886 0 0-.53-.885-.532-2.127-1.486-2.127-1.486s-1.948.29-2.478 0c-.53-.284-3.013-1.703-3.013-1.703s-2.65.888-4.243.533zM323.233 295.45s1.105.887 1.635.887c.532 0 3.72-.442 3.72-.442s.704.798 1.237 0c.533-.794 1.77-1.682 1.77-1.682l2.125 1.062v-1.062s.705-.354 0-1.416c-.71-1.062-2.305-2.017-2.305-2.017l-2.782 1.133-1.29.707s-.176.886-.352 1.593c-.176.71-1.77.888-1.77.888l-1.987.35z"/><path d="M352.9 220.746c-3.31-.47-2.435-1.887-3.818-4.248-1.38-2.363-2.794-4.88-2.794-4.88l-.944-2.202-5.196 5.195s-3.3 1.888-5.188-.945c-1.89-2.834-1.89-8.5-1.89-8.5h-7.08c-4.723 2.835-4.723 3.78-4.723 5.666 0 1.89.948 5.668.948 7.084 0 1.417.47 3.304-.948 4.72-1.415 1.415-4.718 1.415-5.192 3.305-.474 1.888 6.61 1.888-.474 1.888-7.077 0-11.474-.47-10.93-4.248.545-3.778 6.683-.475.545-3.778-6.133-3.303-3.314-2.356-6.85-4.722-3.535-2.358-4.95-3.773-4.95-5.19 0-1.415-2.833-.944 0-4.725 2.834-3.773 7.553-4.837 7.553-4.837s-.146-.12 3.703 0c3.853.12 5.272 4.492 5.74-.055.472-4.548.472-4.548 1.416-7.382.944-2.83-.474 0 .944-2.83 1.42-2.83.944-5.19.944-5.19s.475-.944-2.362 0c-2.83.942-4.864 2.83-6.682 4.718-1.814 1.89-7.497 2.36-6.306.947 1.188-1.417-2.59-6.086-2.59-6.086s-2.834-1.363-4.248 0c-1.415 1.362-8.5 5.138-8.5 5.138s-14.006.473-15.26.473c-1.262 0-9.288.476-10.702-.94-1.415-1.418-5.192-5.273-5.192-5.273s-.944 1.967-7.086 3.384c-6.137 1.415 2.363-.474-6.137 1.415-8.497 1.892-6.607 1.892-12.744 1.892-3.77 0-8.767-.357-12.078-.63-10.878 10.005-20.04 21.838-27.03 35.007.523-.047 1.123-.158 1.816-.39 2.83-.942 5.19.42 5.19.42l-5.19 7.455 7.548-5.987 7.556-6.135s-3.308 2.36 0-1.89 2.833-7.55 6.61-6.61c3.774.945 8.967 1.89 10.386 3.776 1.414 1.893 8.495 9.442 8.495 9.442l5.666 7.402 6.14 5.222s3.3 3.558 2.83 5.853c-.47 2.297-2.83 6.07-3.777 8.434-.945 2.358-.945 4.244-.945 7.552 0 3.306 4.77 7.554 4.77 7.554h4.2l2.838 9.44 3.3 10.9 6.606 7.038-1.886-7.038-3.304-6.652-1.418-4.718s1.89-3.78 3.777-2.365c1.888 1.418 7.08 7.082 7.554 8.5.47 1.415 0 12.272 0 12.272s-2.414 5.666.204 5.666c2.626 0 7.822 2.36 9.237 3.304 1.414.944 3.773 0 5.662 0s8.025.42 8.025.42.47.524 2.834 2.412c2.358 1.89 6.838 1.89 6.838 1.89s2.603 2.775 2.603 4.22c0 1.443 3.703 3.805 3.703 3.805h9.988s2.83-2.417 0-3.805c-2.833-1.39-7.08 0-7.08 0s-2.505-3.748-2.908-4.22c-.396-.475 0-3.308 0-3.308v-2.83l-6.306-.946H295.3l5.667-8.024c-3.3-1.416-5.193-1.416-6.607-1.416-1.42 0-.944 3.303-2.833 4.72-1.89 1.42 3.773 1.42-1.89 1.42-5.662 0-5.192 3.302-5.662 0-.48-3.307-3.308-7.942-3.308-10.345 0-2.404 1.42-4.293 1.42-5.708s-1.42-3.306.94-4.72c2.362-1.417 5.665-4.25 8.024-3.308 2.364.947 7.313 3.778 7.313 3.778v-5.194l6.306-.472 4.32 5.666s-3.307 1.417.475 3.304l3.774 1.89s3.934-2.834 2.675-6.138c-1.258-3.304-1.728-8.498-1.728-8.498s-.294-1.855 1.98-4.704c2.27-2.85 5.572-4.737 5.572-4.737l3.772-3.774c2.833-2.832 5.196-7.21 5.196-7.21s1.89-3.987 3.777-4.056c1.89-.064-.948.54 5.66 0l6.613-.537s2.29 3.91 2.32.537c.04-3.368-1.38-4.562-2.32-5.853l-.947-1.295s-.54-6.134 3.27-6.134h7.594s1.89.945 2.358-1.416c.47-2.36 0-5.192 0-5.192s-2.83-2.364-6.133-2.836z"/></g><path fill="#A29465" d="M283.69 447.3h37.05v22.647h-37.05z"/><path fill="#CDC29A" d="M352.02 423.333c-15.55 5.66-32.32 8.755-49.808 8.755-80.538 0-146.06-65.522-146.06-146.06 0-58.983 35.158-109.877 85.608-132.91l-7.516-18.42c-57.692 26.018-97.978 84.037-97.978 151.33 0 91.502 74.44 165.943 165.944 165.943 20.144 0 39.45-3.612 57.33-10.214l-7.52-18.423zM359.542 476.85c0 3.813-3.093 6.903-6.91 6.903h-97.82c-3.816 0-6.904-3.09-6.904-6.903 0-3.812 3.088-6.902 6.904-6.902h97.82c3.817 0 6.91 3.09 6.91 6.902z"/><path fill="#BE1622" d="M293.765 99.98c9.762 0 17.705 7.472 18.63 16.994.055-.607.188-1.195.188-1.812 0-10.4-8.433-18.822-18.817-18.822-10.396 0-18.803 8.422-18.803 18.822 0 .617.118 1.205.173 1.812.924-9.522 8.863-16.994 18.63-16.994z"/><path fill="#E94E1B" d="M293.765 82.293c-18.63 0-33.73 15.104-33.73 33.724 0 4.242.82 8.292 2.247 12.032l.783 1.26s28.278 49.413 30.7 49.413c2.778 0 30.4-48.93 30.4-48.93l1.083-1.744c1.423-3.74 2.242-7.79 2.242-12.033 0-18.62-15.095-33.724-33.725-33.724zm0 51.674c-10.396 0-18.803-8.422-18.803-18.805 0-10.4 8.406-18.822 18.803-18.822 10.385 0 18.817 8.422 18.817 18.822 0 10.383-8.433 18.805-18.817 18.805z"/><path fill="#BE1622" d="M360.52 195.305c3.163 0 5.733 2.418 6.03 5.5.02-.193.064-.386.064-.585 0-3.367-2.73-6.094-6.094-6.094-3.366 0-6.086 2.727-6.086 6.094 0 .2.04.392.055.585.298-3.082 2.868-5.5 6.03-5.5z"/><path fill="#E94E1B" d="M360.52 189.575c-6.03 0-10.92 4.89-10.92 10.92 0 1.376.266 2.687.728 3.897l.25.407s9.16 15.998 9.943 15.998c.898 0 9.845-15.842 9.845-15.842l.35-.564c.46-1.21.728-2.52.728-3.897 0-6.03-4.89-10.92-10.922-10.92zm0 16.732c-3.365 0-6.085-2.728-6.085-6.087 0-3.367 2.72-6.094 6.086-6.094s6.095 2.727 6.095 6.094c0 3.36-2.728 6.087-6.094 6.087z"/><path fill="#BE1622" d="M302.213 263.086c2.25 0 4.076 1.72 4.288 3.907.017-.137.044-.274.044-.415 0-2.393-1.94-4.328-4.33-4.328s-4.322 1.936-4.322 4.328c0 .14.027.278.042.415.212-2.188 2.038-3.907 4.28-3.907z"/><path fill="#E94E1B" d="M302.213 259.017c-4.28 0-7.755 3.474-7.755 7.757 0 .98.192 1.91.518 2.77l.176.29s6.506 11.364 7.062 11.364c.644 0 6.995-11.253 6.995-11.253l.246-.4c.33-.86.518-1.792.518-2.77 0-4.285-3.473-7.758-7.76-7.758zm0 11.885c-2.39 0-4.32-1.938-4.32-4.324 0-2.393 1.93-4.328 4.32-4.328 2.39 0 4.33 1.936 4.33 4.328 0 2.386-1.94 4.324-4.33 4.324z"/><path fill="#BE1622" d="M344.92 354.646c3.45 0 6.255 2.642 6.584 6.004.023-.21.066-.422.066-.64 0-3.675-2.98-6.65-6.65-6.65-3.676 0-6.645 2.976-6.645 6.65 0 .218.04.43.062.64.325-3.362 3.13-6.004 6.584-6.004z"/><path fill="#E94E1B" d="M344.92 348.393c-6.583 0-11.92 5.337-11.92 11.92 0 1.504.29 2.934.79 4.257l.275.444s10 17.466 10.855 17.466c.98 0 10.744-17.293 10.744-17.293l.38-.617c.507-1.323.796-2.753.796-4.256 0-6.585-5.336-11.92-11.92-11.92zm0 18.265c-3.676 0-6.645-2.98-6.645-6.646 0-3.676 2.97-6.652 6.646-6.652 3.672 0 6.65 2.977 6.65 6.652 0 3.668-2.978 6.646-6.65 6.646z"/><path fill="#E51A2E" d="M293.765 192.85c-.983 0-1.842-.72-1.987-1.716-.16-1.098.6-2.114 1.693-2.275.1-.017 2.47-.357 6.283-.38h.007c1.105 0 2.003.893 2.007 1.996.008 1.108-.886 2.012-1.99 2.018-3.508.02-5.702.333-5.722.335-.103.014-.197.02-.29.02zM348.083 217.354c-.67 0-1.33-.336-1.705-.946-1.96-3.153-4.22-6.043-6.72-8.595-.776-.79-.765-2.062.026-2.837.792-.778 2.062-.767 2.838.027 2.704 2.76 5.148 5.884 7.265 9.284.58.94.294 2.178-.646 2.764-.332.206-.693.304-1.057.304zm-12.693-13.93c-.415 0-.838-.128-1.2-.398-2.87-2.146-6.042-4-9.416-5.51-1.01-.45-1.465-1.637-1.015-2.65.453-1.008 1.63-1.467 2.652-1.013 3.645 1.63 7.073 3.636 10.18 5.96.89.66 1.07 1.92.404 2.807-.392.526-.995.805-1.606.805zm-16.913-8.345c-.185 0-.376-.026-.564-.083-3.44-1.01-7.07-1.728-10.8-2.13-1.102-.117-1.897-1.106-1.78-2.21.118-1.1 1.047-1.916 2.21-1.78 3.967.43 7.84 1.192 11.503 2.272 1.062.31 1.673 1.427 1.36 2.49-.26.874-1.06 1.44-1.93 1.44zM348.733 232.718c-.662 0-1.312-.33-1.697-.93-.595-.936-.317-2.176.62-2.77 1.562-.996 2.86-1.756 3.78-2.28-.497-1.31-1.03-2.593-1.586-3.825-.463-1.01-.016-2.198.995-2.657 1.01-.457 2.194-.01 2.657.995.834 1.84 1.61 3.78 2.304 5.762.333.946-.086 1.995-.98 2.45-.022.01-2.006 1.023-5.015 2.942-.336.212-.708.314-1.077.314zM314.644 277.06c-.113 0-.23-.01-.353-.03-1.088-.193-1.817-1.234-1.62-2.326.68-3.844 1.853-7.688 3.478-11.423.447-1.01 1.63-1.48 2.642-1.037 1.02.442 1.48 1.626 1.042 2.64-1.505 3.448-2.586 6.988-3.213 10.523-.174.97-1.02 1.655-1.976 1.655zm6.89-17.767c-.357 0-.72-.094-1.043-.292-.948-.575-1.246-1.81-.674-2.756 1.97-3.233 4.33-6.438 7.015-9.528.73-.84 2-.92 2.83-.198.84.727.925 1.995.2 2.83-2.535 2.92-4.76 5.942-6.61 8.98-.38.622-1.043.965-1.717.965zm12.112-14.798c-.53 0-1.055-.207-1.454-.62-.76-.802-.733-2.07.07-2.838 2.755-2.632 5.772-5.18 8.966-7.575.89-.662 2.148-.48 2.814.404.662.887.48 2.146-.408 2.81-3.064 2.296-5.964 4.74-8.605 7.266-.384.37-.886.553-1.384.553zM319.645 293.453c-.337 0-.68-.084-.99-.263-3.105-1.77-5.1-2.576-5.116-2.585-.682-.273-1.16-.896-1.246-1.622-.255-2.09-.377-4.2-.36-6.27.016-1.105 1.042-1.95 2.02-1.99 1.114.01 2 .916 1.992 2.023-.01 1.526.06 3.078.207 4.626.97.446 2.52 1.21 4.487 2.33.964.55 1.3 1.774.752 2.737-.372.65-1.05 1.013-1.747 1.013zM362.21 370.99c-1.097 0-1.99-.882-2.006-1.983-.044-3.686-.267-7.354-.66-10.898-.12-1.102.676-2.093 1.772-2.217 1.117-.105 2.097.675 2.218 1.773.408 3.676.635 7.475.683 11.294.016 1.107-.87 2.016-1.983 2.03h-.024zm-1.752-18.428c-.948 0-1.79-.676-1.97-1.642-.667-3.61-1.537-7.166-2.587-10.57-.33-1.057.263-2.18 1.325-2.507 1.05-.323 2.183.265 2.508 1.324 1.098 3.55 2.007 7.26 2.7 11.024.2 1.09-.52 2.137-1.61 2.338-.122.024-.243.034-.365.034zm-5.12-17.784c-.793 0-1.545-.475-1.86-1.256-1.358-3.372-2.937-6.664-4.693-9.787-.55-.964-.204-2.188.76-2.73.965-.548 2.19-.203 2.735.764 1.842 3.27 3.496 6.72 4.923 10.252.41 1.028-.086 2.198-1.113 2.612-.248.097-.503.144-.753.144zm-8.725-16.313c-.643 0-1.27-.304-1.657-.872-2.042-2.973-4.3-5.84-6.722-8.52-.74-.824-.674-2.094.15-2.834.822-.746 2.084-.682 2.828.144 2.54 2.813 4.914 5.82 7.05 8.94.628.913.396 2.163-.52 2.788-.345.24-.74.353-1.13.353zm-12.093-14.012c-.49 0-.98-.18-1.363-.537-2.665-2.473-5.502-4.777-8.426-6.846-.903-.64-1.12-1.892-.477-2.797.635-.902 1.89-1.118 2.794-.48 3.072 2.172 6.047 4.59 8.837 7.184.815.755.862 2.022.105 2.836-.396.424-.93.64-1.47.64zM361.665 384.486c-.06 0-.12-.002-.184-.008-1.104-.102-1.916-1.078-1.817-2.18.188-2.016.32-3.986.415-5.92.047-1.107.952-2 2.097-1.91 1.11.052 1.964.99 1.908 2.098-.094 1.992-.235 4.022-.423 6.096-.094 1.04-.968 1.824-1.995 1.824z"/><path fill="#E51A2E" d="M298.036 190.844c0-2.36-1.912-4.275-4.27-4.275-2.364 0-4.28 1.913-4.28 4.274 0 2.36 1.916 4.275 4.28 4.275 2.358 0 4.27-1.916 4.27-4.276zM357.633 226.324c0-2.36-1.912-4.275-4.27-4.275-2.363 0-4.28 1.913-4.28 4.274s1.917 4.275 4.28 4.275c2.358 0 4.27-1.914 4.27-4.276z"/><circle fill="#E51A2E" cx="314.405" cy="288.742" r="4.276"/><path fill="#E51A2E" d="M364.232 382.48c0-2.362-1.913-4.276-4.27-4.276-2.364 0-4.28 1.914-4.28 4.275s1.916 4.274 4.28 4.274c2.357 0 4.27-1.913 4.27-4.275z"/></svg>